<svg xmlns="http://www.w3.org/2000/svg" xmlns:xlink="http://www.w3.org/1999/xlink" width="1030.359" height="684.525" viewBox="0 0 1030.359 684.525"><defs><linearGradient id="a" x1="0.758" y1="0.435" x2="0.641" y2="0.866" gradientUnits="objectBoundingBox"><stop offset="0" stop-color="#fed680"/><stop offset="0.644" stop-color="#fdae36"/><stop offset="1" stop-color="#ff9800"/></linearGradient><linearGradient id="b" x1="0.246" y1="0.638" x2="0.361" y2="-0.025" gradientUnits="objectBoundingBox"><stop offset="0" stop-color="#fda92d"/><stop offset="0.269" stop-color="#fdbb4d"/><stop offset="1" stop-color="#fed680"/></linearGradient><linearGradient id="c" x1="0.412" y1="1" x2="0.412" y2="0.379" gradientUnits="objectBoundingBox"><stop offset="0" stop-color="#b66816"/><stop offset="1" stop-color="#fda92d"/></linearGradient></defs><g transform="translate(-518.941 -208.048)"><path d="M841.788,878.293s24.41,30.083,54.144,5.826c1.565-2.347,116.589-148.67,116.589-148.67s12.519-19.562-7.042-45.384c0-.782-435.96-479.3-435.96-479.3s-51.763-14.445-50.558,40.328Z" transform="translate(0 -1)" fill="url(#a)"/><path d="M1195.817,828.062s27.465,25.431,51.878-12.207c1.017,0,79.343-195.305,79.343-195.305L747.225,263.507s-55.947-8.137-41.706,51.878Z" transform="translate(72.459 20.434)" fill="url(#b)"/><path d="M1060.439,411.7a18.531,18.531,0,0,0,0,22.271c.6-.6,147.466,101.119,147.466,101.119s22.871,9.029,38.521-17.455c.6-1.2,100.52-257.614,100.52-257.614s5.416-51.162-49.357-39.124Z" transform="translate(202.206 1.344)" fill="url(#c)"/></g></svg>