<svg xmlns="http://www.w3.org/2000/svg" xmlns:xlink="http://www.w3.org/1999/xlink" width="369.059" height="110.482" viewBox="0 0 369.059 110.482">
  <defs>
    <linearGradient id="linear-gradient" x1="0.758" y1="0.435" x2="0.641" y2="0.866" gradientUnits="objectBoundingBox">
      <stop offset="0" stop-color="#fed680"/>
      <stop offset="0.644" stop-color="#fdae36"/>
      <stop offset="1" stop-color="#ff9800"/>
    </linearGradient>
    <linearGradient id="linear-gradient-2" x1="0.246" y1="0.638" x2="0.361" y2="-0.025" gradientUnits="objectBoundingBox">
      <stop offset="0" stop-color="#fda92d"/>
      <stop offset="0.269" stop-color="#fdbb4d"/>
      <stop offset="1" stop-color="#fed680"/>
    </linearGradient>
    <linearGradient id="linear-gradient-3" x1="0.412" y1="1" x2="0.412" y2="0.379" gradientUnits="objectBoundingBox">
      <stop offset="0" stop-color="#b66816"/>
      <stop offset="1" stop-color="#fda92d"/>
    </linearGradient>
  </defs>
  <g id="Group_3" transform="translate(-518.941 -612.518)">
    <g id="Group_1" transform="translate(0 404.47)">
      <path id="Path_1" d="M563.673,301.776s3.382,4.168,7.5.807c.217-.325,16.154-20.6,16.154-20.6s1.735-2.71-.976-6.288c0-.108-60.405-66.41-60.405-66.41s-7.172-2-7.005,5.588Z" transform="translate(0 -1)" fill="url(#linear-gradient)"/>
      <path id="Path_2" d="M771.455,341.411s3.805,3.524,7.188-1.691c.141,0,10.993-27.061,10.993-27.061L709.3,263.188s-7.752-1.128-5.779,7.188Z" transform="translate(-148.688 -44.625)" fill="url(#linear-gradient-2)"/>
      <path id="Path_3" d="M1057.211,245.756a2.568,2.568,0,0,0,0,3.086c.083-.083,20.432,14.011,20.432,14.011s3.169,1.251,5.338-2.419c.083-.167,13.927-35.694,13.927-35.694s.751-7.089-6.839-5.421Z" transform="translate(-435.225 -9.304)" fill="url(#linear-gradient-3)"/>
    </g>
    <text id="eb_Droid" transform="translate(643 708)" fill="#5d4519" font-size="60" font-family="SegoeUI-Bold, Segoe UI" font-weight="700"><tspan x="0" y="0">eb Droid</tspan></text>
  </g>
</svg>
