<svg xmlns="http://www.w3.org/2000/svg" width="2815.477" height="2815.481" viewBox="0 0 2815.477 2815.481">
  <g id="Zone" transform="translate(0)">
    <g id="path3788" transform="translate(-136.905 -688.413)">
      <path id="Path_1" data-name="Path 1" d="M2952.381,2096.152c0,777.476-630.263,1407.743-1407.739,1407.743S136.9,2873.627,136.9,2096.152,767.171,688.413,1544.643,688.413,2952.381,1318.68,2952.381,2096.152Z" fill="rgba(108,102,243,0.2)"/>
    </g>
    <g id="path3786" transform="translate(-136.905 -688.413)">
      <path id="Path_2" data-name="Path 2" d="M2505.956,2099.131c0,529.271-430.4,958.334-961.313,958.334S583.334,2628.4,583.334,2099.131,1013.726,1140.8,1544.643,1140.8,2505.956,1569.855,2505.956,2099.131Z" fill="rgba(108,102,243,0.4)"/>
    </g>
    <g id="path3784" transform="translate(-136.905 -688.413)">
      <path id="Path_3" data-name="Path 3" d="M2095.239,2102.106c0,304.088-245.175,550.6-547.617,550.6S1000,2406.194,1000,2102.106s245.179-550.6,547.621-550.6S2095.239,1798.022,2095.239,2102.106Z" fill="rgba(108,102,243,0.6)"/>
    </g>
  </g>
</svg>
